<mxfile host="app.diagrams.net" agent="Mozilla/5.0 (Macintosh; Intel Mac OS X 10_15_7) AppleWebKit/537.36 (KHTML, like Gecko) Chrome/134.0.0.0 Safari/537.36" version="26.1.1">
  <diagram name="Page-1" id="a-gN9i7Yp3jXUiyPK5K_">
    <mxGraphModel dx="1467" dy="1204" grid="1" gridSize="10" guides="1" tooltips="1" connect="1" arrows="1" fold="1" page="1" pageScale="1" pageWidth="827" pageHeight="1169" math="0" shadow="0">
      <root>
        <mxCell id="0" />
        <mxCell id="1" parent="0" />
        <mxCell id="hMMo3PG8kv19PtLI3BZr-1" value="Actor" style="shape=umlActor;verticalLabelPosition=bottom;verticalAlign=top;html=1;outlineConnect=0;" vertex="1" parent="1">
          <mxGeometry x="120" y="340" width="30" height="60" as="geometry" />
        </mxCell>
        <mxCell id="hMMo3PG8kv19PtLI3BZr-2" value="Actor" style="shape=umlActor;verticalLabelPosition=bottom;verticalAlign=top;html=1;outlineConnect=0;" vertex="1" parent="1">
          <mxGeometry x="120" y="480" width="30" height="60" as="geometry" />
        </mxCell>
        <mxCell id="hMMo3PG8kv19PtLI3BZr-3" value="Actor" style="shape=umlActor;verticalLabelPosition=bottom;verticalAlign=top;html=1;outlineConnect=0;" vertex="1" parent="1">
          <mxGeometry x="120" y="610" width="30" height="60" as="geometry" />
        </mxCell>
        <mxCell id="hMMo3PG8kv19PtLI3BZr-4" value="Actor" style="shape=umlActor;verticalLabelPosition=bottom;verticalAlign=top;html=1;outlineConnect=0;" vertex="1" parent="1">
          <mxGeometry x="120" y="730" width="30" height="60" as="geometry" />
        </mxCell>
        <mxCell id="hMMo3PG8kv19PtLI3BZr-20" style="edgeStyle=orthogonalEdgeStyle;rounded=0;orthogonalLoop=1;jettySize=auto;html=1;" edge="1" parent="1" source="hMMo3PG8kv19PtLI3BZr-5" target="hMMo3PG8kv19PtLI3BZr-7">
          <mxGeometry relative="1" as="geometry" />
        </mxCell>
        <mxCell id="hMMo3PG8kv19PtLI3BZr-5" value="server" style="shape=cylinder3;whiteSpace=wrap;html=1;boundedLbl=1;backgroundOutline=1;size=15;" vertex="1" parent="1">
          <mxGeometry x="1450" y="470" width="170" height="200" as="geometry" />
        </mxCell>
        <mxCell id="hMMo3PG8kv19PtLI3BZr-19" style="edgeStyle=orthogonalEdgeStyle;rounded=0;orthogonalLoop=1;jettySize=auto;html=1;" edge="1" parent="1" source="hMMo3PG8kv19PtLI3BZr-7" target="hMMo3PG8kv19PtLI3BZr-5">
          <mxGeometry relative="1" as="geometry">
            <Array as="points">
              <mxPoint x="910" y="570" />
              <mxPoint x="910" y="570" />
            </Array>
          </mxGeometry>
        </mxCell>
        <mxCell id="hMMo3PG8kv19PtLI3BZr-21" value="GAME_START(int game_id, String[] cards, String[] players)" style="edgeLabel;html=1;align=center;verticalAlign=middle;resizable=0;points=[];" vertex="1" connectable="0" parent="hMMo3PG8kv19PtLI3BZr-19">
          <mxGeometry x="-0.124" y="-1" relative="1" as="geometry">
            <mxPoint x="10" y="-11" as="offset" />
          </mxGeometry>
        </mxCell>
        <mxCell id="hMMo3PG8kv19PtLI3BZr-24" value="GAME_OVER (int game_id, String[] players, String winner, String answer)" style="edgeLabel;html=1;align=center;verticalAlign=middle;resizable=0;points=[];" vertex="1" connectable="0" parent="hMMo3PG8kv19PtLI3BZr-19">
          <mxGeometry x="-0.1553" y="1" relative="1" as="geometry">
            <mxPoint x="13" y="11" as="offset" />
          </mxGeometry>
        </mxCell>
        <mxCell id="hMMo3PG8kv19PtLI3BZr-7" value="queue" style="strokeWidth=2;html=1;shape=mxgraph.flowchart.direct_data;whiteSpace=wrap;" vertex="1" parent="1">
          <mxGeometry x="790" y="550" width="270" height="40" as="geometry" />
        </mxCell>
        <mxCell id="hMMo3PG8kv19PtLI3BZr-8" style="edgeStyle=orthogonalEdgeStyle;rounded=0;orthogonalLoop=1;jettySize=auto;html=1;entryX=0;entryY=0.5;entryDx=0;entryDy=0;entryPerimeter=0;" edge="1" parent="1" source="hMMo3PG8kv19PtLI3BZr-1" target="hMMo3PG8kv19PtLI3BZr-7">
          <mxGeometry relative="1" as="geometry" />
        </mxCell>
        <mxCell id="hMMo3PG8kv19PtLI3BZr-9" value="JOIN (String username)" style="edgeLabel;html=1;align=center;verticalAlign=middle;resizable=0;points=[];" vertex="1" connectable="0" parent="hMMo3PG8kv19PtLI3BZr-8">
          <mxGeometry x="-0.0841" y="4" relative="1" as="geometry">
            <mxPoint x="151" y="125" as="offset" />
          </mxGeometry>
        </mxCell>
        <mxCell id="hMMo3PG8kv19PtLI3BZr-16" style="edgeStyle=orthogonalEdgeStyle;rounded=0;orthogonalLoop=1;jettySize=auto;html=1;entryX=0;entryY=0.5;entryDx=0;entryDy=0;entryPerimeter=0;" edge="1" parent="1" source="hMMo3PG8kv19PtLI3BZr-3" target="hMMo3PG8kv19PtLI3BZr-7">
          <mxGeometry relative="1" as="geometry" />
        </mxCell>
        <mxCell id="hMMo3PG8kv19PtLI3BZr-17" style="edgeStyle=orthogonalEdgeStyle;rounded=0;orthogonalLoop=1;jettySize=auto;html=1;entryX=0;entryY=0.5;entryDx=0;entryDy=0;entryPerimeter=0;" edge="1" parent="1" source="hMMo3PG8kv19PtLI3BZr-4" target="hMMo3PG8kv19PtLI3BZr-7">
          <mxGeometry relative="1" as="geometry" />
        </mxCell>
        <mxCell id="hMMo3PG8kv19PtLI3BZr-18" style="edgeStyle=orthogonalEdgeStyle;rounded=0;orthogonalLoop=1;jettySize=auto;html=1;entryX=0;entryY=0.5;entryDx=0;entryDy=0;entryPerimeter=0;" edge="1" parent="1" source="hMMo3PG8kv19PtLI3BZr-2" target="hMMo3PG8kv19PtLI3BZr-7">
          <mxGeometry relative="1" as="geometry" />
        </mxCell>
        <mxCell id="hMMo3PG8kv19PtLI3BZr-25" value="ANSWER(int game_id, String username, String[] cards_used, int answer)" style="edgeLabel;html=1;align=center;verticalAlign=middle;resizable=0;points=[];" vertex="1" connectable="0" parent="hMMo3PG8kv19PtLI3BZr-18">
          <mxGeometry x="0.4859" y="-4" relative="1" as="geometry">
            <mxPoint x="23" y="11" as="offset" />
          </mxGeometry>
        </mxCell>
      </root>
    </mxGraphModel>
  </diagram>
</mxfile>
